<svg width="59" height="59" viewBox="0 0 59 59" fill="none" xmlns="http://www.w3.org/2000/svg">
<g clip-path="url(#clip0_36_309)">
<path d="M29.3361 28.3528C33.7611 28.3528 37.2028 24.7472 37.2028 20.3222C37.2028 15.8972 33.5972 12.4556 29.1722 12.4556C24.7472 12.4556 21.3056 16.0611 21.3056 20.3222C21.3056 24.7472 24.9111 28.3528 29.3361 28.3528ZM29.1722 15.7333C29.3361 15.7333 29.3361 15.7333 29.1722 15.7333C31.7944 15.7333 33.925 17.8639 33.925 20.4861C33.925 23.1083 31.7944 25.075 29.1722 25.075C26.55 25.075 24.5833 22.9445 24.5833 20.4861C24.5833 17.8639 26.7139 15.7333 29.1722 15.7333Z" fill="#FFBC3A"/>
<path d="M53.5917 27.3696C50.4778 24.5835 46.3806 23.1085 42.1194 23.2723H40.8083C40.4805 24.5835 39.9889 25.7307 39.3333 26.714C40.3167 26.5501 41.1361 26.5501 42.1194 26.5501C45.2333 26.3862 48.3472 27.3696 50.8055 29.1723V40.9723H54.0833V27.8612L53.5917 27.3696Z" fill="#FFBC3A"/>
<path d="M38.35 12.7832C39.1694 10.8166 41.4639 9.83323 43.5944 10.6527C45.5611 11.4721 46.5444 13.7666 45.725 15.8971C45.0694 17.3721 43.5944 18.3555 42.1194 18.3555C41.7917 18.3555 41.3 18.3555 40.9722 18.1916C41.1361 19.011 41.1361 19.8305 41.1361 20.486V21.4693C41.4639 21.4693 41.7917 21.6332 42.1194 21.6332C46.2167 21.6332 49.4944 18.3555 49.4944 14.4221C49.4944 10.3249 46.2167 7.04712 42.2833 7.04712C39.6611 7.04712 37.3667 8.35823 36.0556 10.6527C36.875 11.1443 37.6944 11.7999 38.35 12.7832Z" fill="#FFBC3A"/>
<path d="M19.6667 26.8778C19.0111 25.8945 18.5195 24.7473 18.1917 23.4362H16.8806C12.6194 23.2723 8.52223 24.7473 5.40834 27.3695L4.91667 27.8612V40.9723H8.19445V29.1723C10.8167 27.3695 13.7667 26.3862 16.8806 26.5501C17.8639 26.5501 18.8472 26.714 19.6667 26.8778Z" fill="#FFBC3A"/>
<path d="M16.8806 21.4694C17.2083 21.4694 17.5361 21.4694 17.8639 21.3055V20.3221C17.8639 19.5027 17.8639 18.6832 18.0278 18.0277C17.7 18.1916 17.2083 18.1916 16.8806 18.1916C14.75 18.1916 12.9472 16.3888 12.9472 14.2582C12.9472 12.1277 14.75 10.3249 16.8806 10.3249C18.5194 10.3249 19.9944 11.3082 20.65 12.7832C21.3056 11.9638 22.2889 11.1444 23.1083 10.4888C20.9778 7.04713 16.5528 5.89991 13.1111 8.03046C9.66945 10.161 8.52222 14.586 10.6528 18.0277C11.9639 20.1582 14.2583 21.4694 16.8806 21.4694Z" fill="#FFBC3A"/>
<path d="M42.775 37.2028L42.4472 36.7112C39.1694 33.1056 34.5806 30.9751 29.6639 31.1389C24.7472 30.9751 19.9944 33.1056 16.7167 36.7112L16.3889 37.2028V49.6584C16.3889 51.1334 17.5361 52.4445 19.175 52.4445H40.1528C41.6278 52.4445 42.9389 51.1334 42.9389 49.6584V37.2028H42.775ZM39.4972 49.1667H19.6667V38.3501C22.2889 35.7278 25.8944 34.4167 29.6639 34.4167C33.2694 34.2528 36.875 35.7278 39.4972 38.3501V49.1667Z" fill="#FFBC3A"/>
</g>
<defs>
<clipPath id="clip0_36_309">
<rect width="59" height="59" fill="white"/>
</clipPath>
</defs>
</svg>
