<svg width="59" height="59" viewBox="0 0 59 59" fill="none" xmlns="http://www.w3.org/2000/svg">
<path d="M8.85001 17.7001C8.85001 15.3529 9.78241 13.1019 11.4421 11.4422C13.1018 9.78251 15.3528 8.8501 17.7 8.8501H41.3C43.6472 8.8501 45.8982 9.78251 47.5579 11.4422C49.2176 13.1019 50.15 15.3529 50.15 17.7001V41.3001C50.15 43.6473 49.2176 45.8983 47.5579 47.558C45.8982 49.2177 43.6472 50.1501 41.3 50.1501H17.7C15.3528 50.1501 13.1018 49.2177 11.4421 47.558C9.78241 45.8983 8.85001 43.6473 8.85001 41.3001V17.7001ZM17.7 11.8001C16.1352 11.8001 14.6345 12.4217 13.5281 13.5282C12.4216 14.6346 11.8 16.1353 11.8 17.7001V20.8212L28.025 20.6648V11.8001H17.7ZM30.975 11.8001V35.4001H47.2V17.7001C47.2 16.1353 46.5784 14.6346 45.4719 13.5282C44.3655 12.4217 42.8648 11.8001 41.3 11.8001H30.975ZM47.2 38.3501H30.975V47.2001H41.3C42.8648 47.2001 44.3655 46.5785 45.4719 45.472C46.5784 44.3656 47.2 42.8649 47.2 41.3001V38.3501ZM28.025 47.2001V23.6148L11.8 23.7712V41.3001C11.8 42.8649 12.4216 44.3656 13.5281 45.472C14.6345 46.5785 16.1352 47.2001 17.7 47.2001H28.025Z" fill="#FFBC3A"/>
</svg>
