<svg width="59" height="59" viewBox="0 0 59 59" fill="none" xmlns="http://www.w3.org/2000/svg">
<path d="M5.53126 20.2812H53.4688M4.08161 21.6883L28.0216 52.7393C28.1955 52.9661 28.4194 53.1499 28.6758 53.2763C28.9321 53.4028 29.2142 53.4685 29.5 53.4685C29.7859 53.4685 30.0679 53.4028 30.3243 53.2763C30.5806 53.1499 30.8045 52.9661 30.9785 52.7393L54.9184 21.6883C55.1538 21.3818 55.2903 21.0109 55.3099 20.625C55.3295 20.2391 55.2311 19.8563 55.0279 19.5276L46.9073 6.41971C46.7401 6.14844 46.5064 5.92442 46.2283 5.76892C45.9501 5.61342 45.6369 5.53161 45.3182 5.53125H13.6818C13.3631 5.53161 13.0499 5.61342 12.7718 5.76892C12.4936 5.92442 12.2599 6.14844 12.0927 6.41971L3.97214 19.5276C3.76893 19.8563 3.67057 20.2391 3.69012 20.625C3.70968 21.0109 3.84622 21.3818 4.08161 21.6883Z" stroke="#FFBC3A" stroke-width="2.5" stroke-linecap="round" stroke-linejoin="round"/>
<path d="M46.0938 7.375L40.5625 20.2812M40.5625 20.2812L29.5 5.53125L18.4375 20.2812M40.5625 20.2812L29.5 51.625L18.4375 20.2812M12.9062 7.375L18.4375 20.2812" stroke="#FFBC3A" stroke-width="2.5" stroke-linecap="round" stroke-linejoin="round"/>
</svg>
