<svg width="66" height="66" viewBox="0 0 66 66" fill="none" xmlns="http://www.w3.org/2000/svg">
<path d="M40.975 14.0249C40.975 14.0249 40.425 14.1899 39.49 14.4924C39.325 13.9974 39.105 13.3649 38.775 12.7599C37.73 10.7524 36.19 9.70745 34.32 9.67995C34.1825 9.67995 34.0725 9.67995 33.935 9.70745C33.88 9.65245 33.825 9.56995 33.77 9.51495C32.9725 8.63495 31.9275 8.22245 30.69 8.24995C28.2975 8.33245 25.905 10.0649 23.9525 13.1449C22.5775 15.3174 21.56 18.0399 21.2575 20.1299C18.5075 20.9824 16.5825 21.5874 16.5275 21.5874C15.125 22.0274 15.0975 22.0824 14.905 23.3749C14.7675 24.3649 11.1375 52.5249 11.1375 52.5249L41.3325 57.7499V13.9699C41.195 13.9699 41.0575 13.9974 40.975 14.0249ZM33.99 16.1974C32.395 16.6924 30.635 17.2424 28.9025 17.7649C29.3975 15.8674 30.3325 13.9974 31.4875 12.7599C31.9275 12.2924 32.505 11.7974 33.22 11.4949C33.88 12.8974 34.0175 14.8499 33.99 16.1974ZM30.7175 9.84495C31.2675 9.84495 31.7625 9.95495 32.175 10.2299C31.515 10.5599 30.91 11.0549 30.305 11.6874C28.7925 13.3099 27.61 15.8674 27.1425 18.3149C25.685 18.7549 24.2825 19.1949 22.9625 19.6074C23.7875 15.7299 27.0325 9.95495 30.7175 9.84495ZM26.0425 31.8174C26.2075 34.3749 32.9725 34.9524 33.3575 40.9749C33.66 45.7049 30.855 48.9499 26.785 49.1974C21.945 49.4999 19.25 46.6399 19.25 46.6399L20.2675 42.2674C20.2675 42.2674 22.9625 44.3024 25.1075 44.1649C26.51 44.0824 27.005 42.9274 26.9775 42.1299C26.7575 38.7749 21.2575 38.9674 20.9275 33.4674C20.625 28.8199 23.6775 24.1449 30.3875 23.7049C33 23.5399 34.32 24.1999 34.32 24.1999L32.78 29.9474C32.78 29.9474 31.075 29.1774 29.04 29.2874C26.07 29.4799 26.015 31.3499 26.0425 31.8174ZM35.585 15.7024C35.5575 14.4924 35.42 12.7874 34.8425 11.3299C36.6575 11.6874 37.565 13.7224 37.95 14.9599C37.2625 15.1799 36.465 15.4274 35.585 15.7024ZM42.3225 57.6399L54.8625 54.5324C54.8625 54.5324 49.4725 18.0674 49.445 17.8199C49.4175 17.5724 49.1975 17.4349 49.005 17.4074C48.8125 17.3799 45.2925 17.3249 45.2925 17.3249C45.2925 17.3249 43.1475 15.2349 42.3225 14.4374V57.6399Z" fill="#FFBC3A"/>
</svg>
