<svg width="59" height="59" viewBox="0 0 59 59" fill="none" xmlns="http://www.w3.org/2000/svg">
<path d="M6.14583 6.76038C6.14583 6.27138 5.95158 5.80242 5.60581 5.45665C5.26004 5.11088 4.79108 4.91663 4.30208 4.91663C3.81309 4.91663 3.34412 5.11088 2.99835 5.45665C2.65258 5.80242 2.45833 6.27138 2.45833 6.76038V52.2395C2.45833 53.2573 3.28433 54.0833 4.30208 54.0833H49.1667C49.6557 54.0833 50.1246 53.889 50.4704 53.5433C50.8162 53.1975 51.0104 52.7285 51.0104 52.2395C51.0104 51.7506 50.8162 51.2816 50.4704 50.9358C50.1246 50.59 49.6557 50.3958 49.1667 50.3958H6.14583V6.76038Z" fill="#FFBC3A"/>
<path d="M54.7717 19.1258C55.0973 18.7763 55.2746 18.314 55.2662 17.8364C55.2578 17.3587 55.0643 16.903 54.7265 16.5652C54.3887 16.2274 53.9329 16.0339 53.4553 16.0254C52.9776 16.017 52.5153 16.1943 52.1658 16.52L38.1042 30.5817L28.9592 21.4367C28.6135 21.0914 28.1448 20.8974 27.6562 20.8974C27.1677 20.8974 26.699 21.0914 26.3533 21.4367L11.6033 36.1867C11.4222 36.3554 11.2769 36.559 11.1761 36.7852C11.0753 37.0113 11.0212 37.2555 11.0168 37.503C11.0124 37.7506 11.058 37.9965 11.1507 38.2261C11.2434 38.4557 11.3815 38.6642 11.5565 38.8393C11.7316 39.0144 11.9402 39.1524 12.1697 39.2451C12.3993 39.3379 12.6452 39.3834 12.8928 39.379C13.1403 39.3747 13.3845 39.3205 13.6107 39.2197C13.8368 39.1189 14.0404 38.9736 14.2092 38.7925L27.6562 25.3454L36.8012 34.4904C37.147 34.8357 37.6156 35.0296 38.1042 35.0296C38.5928 35.0296 39.0614 34.8357 39.4071 34.4904L54.7717 19.1258Z" fill="#FFBC3A"/>
</svg>
