<svg width="59" height="59" viewBox="0 0 59 59" fill="none" xmlns="http://www.w3.org/2000/svg">
<path d="M29.5 37.7969C31.141 37.7969 32.7451 37.3103 34.1095 36.3986C35.4739 35.4869 36.5373 34.1911 37.1653 32.6751C37.7933 31.159 37.9576 29.4908 37.6375 27.8814C37.3173 26.2719 36.5271 24.7936 35.3668 23.6332C34.2064 22.4729 32.7281 21.6827 31.1186 21.3625C29.5092 21.0424 27.841 21.2067 26.3249 21.8347C24.8089 22.4627 23.5131 23.5261 22.6014 24.8905C21.6897 26.2549 21.2031 27.859 21.2031 29.5C21.2031 31.7005 22.0773 33.8108 23.6332 35.3668C25.1892 36.9227 27.2995 37.7969 29.5 37.7969ZM29.5 23.0469C30.7763 23.0469 32.024 23.4253 33.0852 24.1344C34.1464 24.8435 34.9735 25.8513 35.4619 27.0305C35.9503 28.2097 36.0781 29.5072 35.8291 30.7589C35.5801 32.0107 34.9655 33.1606 34.063 34.063C33.1606 34.9655 32.0107 35.5801 30.7589 35.8291C29.5072 36.0781 28.2097 35.9503 27.0305 35.4619C25.8513 34.9735 24.8435 34.1464 24.1344 33.0852C23.4253 32.024 23.0469 30.7763 23.0469 29.5C23.0469 27.7885 23.7268 26.1471 24.937 24.937C26.1471 23.7268 27.7885 23.0469 29.5 23.0469ZM55.3125 13.8281H3.6875C3.443 13.8281 3.20852 13.9253 3.03564 14.0981C2.86275 14.271 2.76563 14.5055 2.76562 14.75V44.25C2.76563 44.4945 2.86275 44.729 3.03564 44.9019C3.20852 45.0747 3.443 45.1719 3.6875 45.1719H55.3125C55.557 45.1719 55.7915 45.0747 55.9644 44.9019C56.1372 44.729 56.2344 44.4945 56.2344 44.25V14.75C56.2344 14.5055 56.1372 14.271 55.9644 14.0981C55.7915 13.9253 55.557 13.8281 55.3125 13.8281ZM4.60938 24.7201C6.80962 24.2022 8.82191 23.0811 10.4202 21.4827C12.0186 19.8844 13.1397 17.8721 13.6576 15.6719H45.3424C45.8603 17.8721 46.9814 19.8844 48.5798 21.4827C50.1781 23.0811 52.1904 24.2022 54.3906 24.7201V34.2799C52.1904 34.7978 50.1781 35.9189 48.5798 37.5173C46.9814 39.1156 45.8603 41.1279 45.3424 43.3281H13.6576C13.1397 41.1279 12.0186 39.1156 10.4202 37.5173C8.82191 35.9189 6.80962 34.7978 4.60938 34.2799V24.7201ZM54.3906 22.8164C52.6874 22.3375 51.1358 21.4289 49.8847 20.1778C48.6336 18.9267 47.725 17.3751 47.2461 15.6719H54.3906V22.8164ZM11.7539 15.6719C11.275 17.3751 10.3664 18.9267 9.11528 20.1778C7.8642 21.4289 6.31261 22.3375 4.60938 22.8164V15.6719H11.7539ZM4.60938 36.1836C6.31261 36.6625 7.8642 37.5711 9.11528 38.8222C10.3664 40.0733 11.275 41.6249 11.7539 43.3281H4.60938V36.1836ZM47.2461 43.3281C47.725 41.6249 48.6336 40.0733 49.8847 38.8222C51.1358 37.5711 52.6874 36.6625 54.3906 36.1836V43.3281H47.2461Z" fill="#FFBC3A"/>
</svg>
