<svg width="89" height="94" viewBox="0 0 89 94" fill="none" xmlns="http://www.w3.org/2000/svg">
<path d="M44.2017 92C67.8608 92 86.9034 71.775 86.9034 47C86.9034 22.2249 67.8608 2 44.2017 2C20.5425 2 1.5 22.2249 1.5 47C1.5 71.775 20.5425 92 44.2017 92Z" fill="#8B81FF" stroke="white" stroke-width="3"/>
<path d="M44.2017 87C65.2453 87 82.1675 69.0136 82.1675 47C82.1675 24.9864 65.2453 7 44.2017 7C23.1581 7 6.23584 24.9864 6.23584 47C6.23584 69.0136 23.1581 87 44.2017 87Z" fill="#8B81FF" stroke="white" stroke-width="3"/>
<path d="M53.0233 44.6067C54 43.63 54 42.06 54 38.9167C54 35.7733 54 34.2033 53.0233 33.2267M53.0233 44.6067C52.0467 45.5833 50.4767 45.5833 47.3333 45.5833H40.6667C37.5233 45.5833 35.9533 45.5833 34.9767 44.6067M53.0233 33.2267C52.0467 32.25 50.4767 32.25 47.3333 32.25H40.6667C37.5233 32.25 35.9533 32.25 34.9767 33.2267M34.9767 33.2267C34 34.2033 34 35.7733 34 38.9167C34 42.06 34 43.63 34.9767 44.6067M45.6667 38.9167C45.6667 39.3587 45.4911 39.7826 45.1785 40.0952C44.866 40.4077 44.442 40.5833 44 40.5833C43.558 40.5833 43.134 40.4077 42.8215 40.0952C42.5089 39.7826 42.3333 39.3587 42.3333 38.9167C42.3333 38.4746 42.5089 38.0507 42.8215 37.7382C43.134 37.4256 43.558 37.25 44 37.25C44.442 37.25 44.866 37.4256 45.1785 37.7382C45.4911 38.0507 45.6667 38.4746 45.6667 38.9167Z" stroke="white" stroke-width="1.5"/>
<path d="M53.9999 37.25C52.6738 37.25 51.4021 36.7232 50.4644 35.7855C49.5267 34.8479 48.9999 33.5761 48.9999 32.25M53.9999 40.5833C52.6738 40.5833 51.4021 41.1101 50.4644 42.0478C49.5267 42.9855 48.9999 44.2573 48.9999 45.5833M33.9999 37.25C35.326 37.25 36.5978 36.7232 37.5355 35.7855C38.4731 34.8479 38.9999 33.5761 38.9999 32.25M33.9999 40.5833C35.326 40.5833 36.5978 41.1101 37.5355 42.0478C38.4731 42.9855 38.9999 44.2573 38.9999 45.5833M32.3333 61.23H36.0999C37.7833 61.23 39.4883 61.4067 41.1266 61.7433C44.0516 62.3442 47.0612 62.4109 50.0099 61.94C51.4566 61.7067 52.8766 61.3483 54.1633 60.7283C55.3233 60.1667 56.7449 59.3783 57.6999 58.4933C58.6533 57.61 59.6466 56.165 60.3499 55.035C60.9566 54.065 60.6633 52.8767 59.7066 52.155C59.169 51.764 58.5213 51.5533 57.8566 51.5533C57.1918 51.5533 56.5442 51.764 56.0066 52.155L52.9949 54.43C51.8283 55.3133 50.5533 56.125 49.0349 56.3667C48.8516 56.395 48.6599 56.4217 48.4599 56.445M48.4599 56.445C48.3989 56.4521 48.3377 56.4587 48.2766 56.465M48.4599 56.445C48.7267 56.3729 48.9713 56.2354 49.1716 56.045C49.4227 55.8277 49.6278 55.5624 49.7747 55.2645C49.9217 54.9667 50.0074 54.6425 50.027 54.311C50.0466 53.9795 49.9996 53.6474 49.8887 53.3344C49.7779 53.0213 49.6054 52.7336 49.3816 52.4883C49.1644 52.2472 48.9114 52.0409 48.6316 51.8767C43.9699 49.095 36.7149 51.2133 32.3333 54.3217M48.4599 56.445C48.3997 56.4581 48.3382 56.4648 48.2766 56.465M48.2766 56.465C47.2714 56.566 46.2588 56.5682 45.2533 56.4717" stroke="white" stroke-width="1.5" stroke-linecap="round"/>
<path d="M32.3333 53.0833C32.3333 51.7025 31.214 50.5833 29.8333 50.5833C28.4525 50.5833 27.3333 51.7025 27.3333 53.0833V61.4166C27.3333 62.7973 28.4525 63.9166 29.8333 63.9166C31.214 63.9166 32.3333 62.7973 32.3333 61.4166V53.0833Z" stroke="white" stroke-width="1.5"/>
</svg>
