<svg width="93" height="94" viewBox="0 0 93 94" fill="none" xmlns="http://www.w3.org/2000/svg">
<path d="M46.1458 92.0684C70.6847 92.0684 90.5417 71.9013 90.5417 47.0684C90.5417 22.2354 70.6847 2.06836 46.1458 2.06836C21.607 2.06836 1.75 22.2354 1.75 47.0684C1.75 71.9013 21.607 92.0684 46.1458 92.0684Z" fill="#8B81FF" stroke="white" stroke-width="3"/>
<path d="M46.1459 87.0684C67.9617 87.0684 85.6112 69.1399 85.6112 47.0684C85.6112 24.9968 67.9617 7.06836 46.1459 7.06836C24.3302 7.06836 6.68066 24.9968 6.68066 47.0684C6.68066 69.1399 24.3302 87.0684 46.1459 87.0684Z" fill="#8B81FF" stroke="white" stroke-width="3"/>
<path d="M35.0685 55.2403L42.0863 48.1703L46.6882 52.8369L56.0069 43.3986V48.7349H58.3079V39.4016H49.1042V41.7349H54.3664L46.6882 49.5213L42.0863 44.8546L33.4855 53.6349L35.0685 55.2403ZM30.9614 66.2349C29.9029 66.2349 29.0194 65.8756 28.3107 65.1569C27.6005 64.4367 27.2454 63.5399 27.2454 62.4666V32.6699C27.2454 31.5966 27.6005 30.7006 28.3107 29.9819C29.0194 29.2617 29.9029 28.9016 30.9614 28.9016H60.3442C61.4026 28.9016 62.2862 29.2617 62.9949 29.9819C63.7051 30.7006 64.0602 31.5966 64.0602 32.6699V62.4666C64.0602 63.5399 63.7058 64.4359 62.9972 65.1546C62.2869 65.8748 61.4026 66.2349 60.3442 66.2349H30.9614ZM30.9614 63.9016H60.3442C60.697 63.9016 61.0214 63.7523 61.3175 63.4536C61.612 63.1534 61.7593 62.8244 61.7593 62.4666V32.6699C61.7593 32.3122 61.612 31.9832 61.3175 31.6829C61.0214 31.3843 60.697 31.2349 60.3442 31.2349H30.9614C30.6085 31.2349 30.2841 31.3843 29.9881 31.6829C29.6935 31.9832 29.5463 32.3122 29.5463 32.6699V62.4666C29.5463 62.8244 29.6935 63.1534 29.9881 63.4536C30.2841 63.7523 30.6085 63.9016 30.9614 63.9016Z" fill="white"/>
</svg>
