<svg width="52" height="52" viewBox="0 0 52 52" fill="none" xmlns="http://www.w3.org/2000/svg">
<path d="M23.309 32.9159C23.9807 33.589 24.843 33.8953 25.896 33.8346C26.949 33.7739 27.7167 33.3955 28.1992 32.6993L39.585 16.8349L23.6362 28.1363C22.9111 28.6187 22.5073 29.3684 22.425 30.3853C22.3427 31.4021 22.6381 32.2471 23.3112 32.9203L23.309 32.9159ZM26 10.8333C27.9919 10.8333 29.8047 11.0759 31.4383 11.5613C33.072 12.0466 34.7006 12.7876 36.3242 13.7843L34.333 15.1341C33.0576 14.4364 31.7373 13.9063 30.3723 13.5438C29.0073 13.1812 27.5499 12.9999 26 12.9999C21.1972 12.9999 17.1073 14.6885 13.7302 18.0656C10.3531 21.4427 8.66522 25.5319 8.66667 30.3333C8.66667 31.8499 8.87467 33.3485 9.29067 34.8291C9.70667 36.3096 10.2931 37.6999 11.05 38.9999H40.95C41.7806 37.6277 42.3858 36.2013 42.7657 34.7208C43.1456 33.2402 43.3348 31.7055 43.3333 30.1166C43.3333 28.8166 43.1658 27.4487 42.8307 26.0129C42.497 24.5771 41.9676 23.2396 41.2425 22.0003L42.5923 20.0069C43.6468 21.8168 44.3928 23.5184 44.8305 25.1116C45.2682 26.7063 45.4913 28.3659 45.5 30.0906C45.5087 31.9539 45.3014 33.693 44.8782 35.3079C44.4564 36.9214 43.7992 38.5493 42.9065 40.1916C42.7332 40.4805 42.4696 40.7152 42.1157 40.8958C41.7632 41.0763 41.3747 41.1666 40.95 41.1666H11.05C10.6528 41.1666 10.2844 41.0691 9.945 40.8741C9.607 40.6805 9.32244 40.3974 9.09133 40.0248C8.37489 38.7609 7.76389 37.3352 7.25833 35.7478C6.75278 34.1603 6.5 32.3555 6.5 30.3333C6.5 27.6697 7.00556 25.1556 8.01667 22.7911C9.02633 20.4265 10.4058 18.3559 12.155 16.5793C13.9028 14.8026 15.9683 13.4 18.3517 12.3716C20.7393 11.346 23.2888 10.8333 26 10.8333Z" fill="white"/>
</svg>
