<svg width="93" height="94" viewBox="0 0 93 94" fill="none" xmlns="http://www.w3.org/2000/svg">
<circle cx="46.5" cy="46.625" r="45" fill="#8B81FF" stroke="white" stroke-width="3"/>
<circle cx="46.5" cy="46.625" r="40" fill="#8B81FF" stroke="white" stroke-width="3"/>
<path d="M42.1474 55.6251L40.2787 56.5336C36.4837 57.5839 34.5843 58.1091 33.5608 57.0032C32.5373 55.8992 33.0663 53.8982 34.1262 49.8923L34.3984 48.8573C34.6993 47.7169 34.8507 47.1496 34.7759 46.5842C34.6993 46.0207 34.406 45.5242 33.8195 44.5333L33.2867 43.6325C31.2224 40.1422 30.1913 38.3981 30.8774 37.0085C31.5674 35.6208 33.5205 35.5077 37.4286 35.2835L38.4387 35.226C39.5504 35.1608 40.1043 35.1302 40.5892 34.8714C41.0722 34.6127 41.4306 34.1584 42.1474 33.2461L42.7991 32.4181C45.3214 29.2115 46.5826 27.6092 48.0316 27.8564C49.4806 28.1037 50.1591 30.0357 51.5142 33.9016L51.8649 34.9021C52.2502 36.0003 52.4438 36.5504 52.8175 36.9529C53.1932 37.3592 53.7069 37.5739 54.7361 38.0013L55.6734 38.3923C59.2959 39.8988 61.1071 40.654 61.3122 42.1931C61.4885 43.5079 60.3979 44.6522 58.1689 46.5822" stroke="white" stroke-width="2.5"/>
<path d="M52.2329 44.4874C50.3412 42.2258 49.3963 41.0949 48.3076 41.2674C47.2209 41.4418 46.7129 42.8065 45.6971 45.5358L45.4326 46.2412C45.1451 47.0174 44.9994 47.4046 44.7177 47.6902C44.4379 47.9758 44.0507 48.1272 43.2802 48.43L42.5768 48.7041C39.8609 49.7678 38.5019 50.3007 38.3467 51.3874C38.1934 52.4742 39.3434 53.398 41.6453 55.2418L42.2394 55.721C42.8949 56.2443 43.2227 56.5068 43.4105 56.8653C43.6022 57.2237 43.6309 57.6396 43.6904 58.4695L43.7459 59.2247C43.9568 62.1438 44.0641 63.6043 45.055 64.1026C46.0459 64.6009 47.2669 63.8055 49.7068 62.2185L50.3374 61.8064C51.0312 61.356 51.3781 61.1298 51.7749 61.0647C52.1735 61.0014 52.5799 61.1068 53.3868 61.3177L54.1247 61.5093C56.9709 62.2492 58.395 62.621 59.1636 61.8409C59.9303 61.0608 59.5335 59.6482 58.74 56.8192L58.533 56.0909C58.3088 55.2859 58.1957 54.8834 58.2513 54.4867C58.3088 54.088 58.5292 53.7392 58.9681 53.0377L59.3706 52.4013C60.9174 49.9384 61.6898 48.7079 61.1723 47.7285C60.6567 46.7491 59.1924 46.6686 56.2618 46.5114L55.5028 46.4693C54.6709 46.4252 54.2531 46.4022 53.8909 46.2201C53.5267 46.038 53.2584 45.716 52.7217 45.072L52.2329 44.4874Z" stroke="white" stroke-width="2.5"/>
</svg>
