<svg width="93" height="94" viewBox="0 0 93 94" fill="none" xmlns="http://www.w3.org/2000/svg">
<circle cx="46.5" cy="47.375" r="45" fill="#8B81FF" stroke="white" stroke-width="3"/>
<circle cx="46.5" cy="47.375" r="40" fill="#8B81FF" stroke="white" stroke-width="3"/>
<g clip-path="url(#clip0_437_412)">
<path d="M47 26.25C35.9544 26.25 27 35.2044 27 46.25C27 57.2962 35.9544 66.25 47 66.25C58.0462 66.25 67 57.2962 67 46.25C67 35.2044 58.0462 26.25 47 26.25ZM47 63.7894C37.3506 63.7894 29.5 55.8994 29.5 46.2499C29.5 36.6005 37.3506 28.7499 47 28.7499C56.6494 28.7499 64.5 36.6006 64.5 46.2499C64.5 55.8993 56.6494 63.7894 47 63.7894ZM54.9819 38.9319L43.2475 50.74L37.9631 45.4556C37.475 44.9675 36.6837 44.9675 36.195 45.4556C35.7068 45.9438 35.7068 46.735 36.195 47.2231L42.3818 53.4106C42.87 53.8981 43.6612 53.8981 44.15 53.4106C44.2062 53.3544 44.2544 53.2931 44.2981 53.2294L56.7506 40.7C57.2381 40.2118 57.2381 39.4206 56.7506 38.9319C56.2619 38.4438 55.4706 38.4438 54.9819 38.9319Z" fill="white"/>
</g>
<defs>
<clipPath id="clip0_437_412">
<rect width="40" height="40" fill="white" transform="translate(27 26.25)"/>
</clipPath>
</defs>
</svg>
