<svg width="56" height="56" viewBox="0 0 56 56" fill="none" xmlns="http://www.w3.org/2000/svg">
<path d="M27.4633 46.6666V44.3333H42.8983C43.2872 44.3333 43.6232 44.2135 43.9063 43.9739C44.191 43.7344 44.3333 43.4201 44.3333 43.0313V26.9593C44.3333 22.5881 42.7264 18.938 39.5127 16.0089C36.2973 13.0783 32.4598 11.6129 28 11.6129C23.5402 11.6129 19.7027 13.0775 16.4873 16.0066C13.2736 18.9373 11.6667 22.5881 11.6667 26.9593V40.2056H10.5C9.54644 40.2056 8.72433 39.8828 8.03367 39.2373C7.34456 38.5933 7 37.7937 7 36.8386V32.4426C7 31.7457 7.22633 31.1274 7.679 30.5876C8.13322 30.0478 8.68467 29.6084 9.33333 29.2693L9.373 26.4016C9.415 23.9671 9.94389 21.7116 10.9597 19.6349C11.9754 17.5598 13.3319 15.753 15.029 14.2146C16.7277 12.6777 18.69 11.4799 20.916 10.6213C23.1436 9.76259 25.5049 9.33325 28 9.33325C30.4951 9.33325 32.8541 9.76259 35.077 10.6213C37.2999 11.4799 39.2544 12.6754 40.9407 14.2076C42.6284 15.7414 43.9779 17.5458 44.989 19.6209C46.0001 21.6976 46.5461 23.9531 46.627 26.3876L46.6667 29.1993C47.2858 29.4901 47.8302 29.8806 48.3 30.3706C48.7667 30.8621 49 31.4517 49 32.1393V37.1909C49 37.88 48.7659 38.4696 48.2977 38.9596C47.831 39.4511 47.2873 39.8416 46.6667 40.1309V43.0336C46.6667 44.0478 46.2996 44.9073 45.5653 45.6119C44.8311 46.3166 43.9421 46.6689 42.8983 46.6689H27.461L27.4633 46.6666ZM21.8983 31.5886C21.4161 31.5886 20.9961 31.4253 20.6383 31.0986C20.2806 30.7719 20.1017 30.3675 20.1017 29.8853C20.1017 29.403 20.2806 28.9908 20.6383 28.6486C20.9961 28.3064 21.4161 28.1353 21.8983 28.1353C22.3806 28.1353 22.7998 28.3064 23.156 28.6486C23.5138 28.9908 23.6927 29.403 23.6927 29.8853C23.6927 30.3675 23.5138 30.7719 23.156 31.0986C22.7982 31.4253 22.3782 31.5886 21.896 31.5886H21.8983ZM34.1017 31.5886C33.6194 31.5886 33.2002 31.4253 32.844 31.0986C32.4862 30.7719 32.3073 30.3675 32.3073 29.8853C32.3073 29.403 32.4862 28.9908 32.844 28.6486C33.2018 28.3064 33.6218 28.1353 34.104 28.1353C34.5847 28.1353 35.0039 28.3064 35.3617 28.6486C35.7194 28.9908 35.8983 29.403 35.8983 29.8853C35.8983 30.3675 35.7194 30.7719 35.3617 31.0986C35.0039 31.4253 34.5839 31.5886 34.1017 31.5886ZM15.673 27.8833C15.4614 24.3895 16.5861 21.4114 19.047 18.9489C21.5094 16.4865 24.5327 15.2553 28.1167 15.2553C31.1298 15.2553 33.7991 16.1598 36.1247 17.9689C38.4502 19.7765 39.8704 22.1526 40.3853 25.0973C37.2944 25.0584 34.426 24.2697 31.78 22.7313C29.1356 21.1944 27.1056 19.0555 25.69 16.3146C25.1269 19.0073 23.9563 21.367 22.1783 23.3939C20.4003 25.4208 18.2319 26.9173 15.673 27.8833Z" fill="white"/>
</svg>
