<svg width="93" height="93" viewBox="0 0 93 93" fill="none" xmlns="http://www.w3.org/2000/svg">
<circle cx="46.5" cy="46.5" r="45" fill="#8B81FF" stroke="white" stroke-width="3"/>
<circle cx="46.5" cy="46.5" r="40" fill="#8B81FF" stroke="white" stroke-width="3"/>
<path d="M44.309 53.9159C44.9807 54.589 45.843 54.8953 46.896 54.8346C47.949 54.7739 48.7167 54.3955 49.1992 53.6993L60.585 37.8349L44.6362 49.1363C43.9111 49.6187 43.5073 50.3684 43.425 51.3853C43.3427 52.4021 43.6381 53.2471 44.3112 53.9203L44.309 53.9159ZM47 31.8333C48.9919 31.8333 50.8047 32.0759 52.4383 32.5613C54.072 33.0466 55.7006 33.7876 57.3242 34.7843L55.333 36.1341C54.0576 35.4364 52.7373 34.9063 51.3723 34.5438C50.0073 34.1812 48.5499 33.9999 47 33.9999C42.1972 33.9999 38.1073 35.6885 34.7302 39.0656C31.3531 42.4427 29.6652 46.5319 29.6667 51.3333C29.6667 52.8499 29.8747 54.3485 30.2907 55.8291C30.7067 57.3096 31.2931 58.6999 32.05 59.9999H61.95C62.7806 58.6277 63.3858 57.2013 63.7657 55.7208C64.1456 54.2402 64.3348 52.7055 64.3333 51.1166C64.3333 49.8166 64.1658 48.4487 63.8307 47.0129C63.497 45.5771 62.9676 44.2396 62.2425 43.0003L63.5923 41.0069C64.6468 42.8168 65.3928 44.5184 65.8305 46.1116C66.2682 47.7063 66.4913 49.3659 66.5 51.0906C66.5087 52.9539 66.3014 54.693 65.8782 56.3079C65.4564 57.9214 64.7992 59.5493 63.9065 61.1916C63.7332 61.4805 63.4696 61.7152 63.1157 61.8958C62.7632 62.0763 62.3747 62.1666 61.95 62.1666H32.05C31.6528 62.1666 31.2844 62.0691 30.945 61.8741C30.607 61.6805 30.3224 61.3974 30.0913 61.0248C29.3749 59.7609 28.7639 58.3352 28.2583 56.7478C27.7528 55.1603 27.5 53.3555 27.5 51.3333C27.5 48.6697 28.0056 46.1556 29.0167 43.7911C30.0263 41.4265 31.4058 39.3559 33.155 37.5793C34.9028 35.8026 36.9683 34.4 39.3517 33.3716C41.7393 32.346 44.2888 31.8333 47 31.8333Z" fill="white"/>
</svg>
