<svg width="56" height="56" viewBox="0 0 56 56" fill="none" xmlns="http://www.w3.org/2000/svg">
<path d="M17.7683 49C16.0821 49 14.6432 48.405 13.4517 47.215C12.2617 46.0234 11.6667 44.5846 11.6667 42.8983V14C11.6667 12.0431 12.3441 10.3872 13.699 9.03233C15.0539 7.67744 16.7098 7 18.6667 7H44.3333V39.13C43.302 39.13 42.4153 39.4994 41.6733 40.2383C40.9344 40.9788 40.565 41.8654 40.565 42.8983C40.565 43.9297 40.9352 44.8156 41.6757 45.556C42.4161 46.2964 43.302 46.6667 44.3333 46.6667V49H17.7683ZM14 38.1803C14.5133 37.7292 15.085 37.3854 15.715 37.149C16.3419 36.9126 17.0263 36.7943 17.7683 36.7943H19.565V9.33333H18.6667C17.3958 9.33333 16.2999 9.793 15.379 10.7123C14.4597 11.6332 14 12.7291 14 14V38.1803ZM21.8983 36.7943H42V9.33333H21.8983V36.7967V36.7943ZM17.7683 46.6667H39.6177C39.1743 46.1533 38.8321 45.584 38.591 44.9587C38.3514 44.3364 38.2317 43.6497 38.2317 42.8983C38.2317 42.1859 38.3499 41.5077 38.5863 40.8637C38.8212 40.2212 39.165 39.6426 39.6177 39.1277H17.7683C16.6981 39.1277 15.8021 39.4979 15.0803 40.2383C14.3601 40.9788 14 41.8654 14 42.8983C14 43.9686 14.3601 44.8646 15.0803 45.5863C15.8021 46.3066 16.6981 46.6667 17.7683 46.6667Z" fill="white"/>
</svg>
