<svg width="93" height="94" viewBox="0 0 93 94" fill="none" xmlns="http://www.w3.org/2000/svg">
<circle cx="46.5" cy="46.7422" r="45" fill="#8B81FF" stroke="white" stroke-width="3"/>
<circle cx="46.5" cy="46.7422" r="40" fill="#8B81FF" stroke="white" stroke-width="3"/>
<g clip-path="url(#clip0_437_348)">
<path d="M40.0865 32.1251C39.7873 32.1648 39.5156 32.3201 39.3296 32.5578L35.3984 37.4974L32.8023 35.7666C32.6744 35.6808 32.5308 35.621 32.3798 35.5907C32.2288 35.5605 32.0732 35.5603 31.9222 35.5903C31.7711 35.6203 31.6274 35.6798 31.4994 35.7655C31.3713 35.8512 31.2615 35.9612 31.1761 36.0895C31.0908 36.2177 31.0315 36.3615 31.0019 36.5126C30.9722 36.6638 30.9727 36.8193 31.0033 36.9703C31.0339 37.1212 31.094 37.2647 31.1801 37.3924C31.2663 37.52 31.3768 37.6295 31.5054 37.7143L34.9669 40.022C35.2095 40.1836 35.5043 40.2473 35.7919 40.2004C36.0796 40.1535 36.3389 39.9995 36.5177 39.7693L41.1331 34.0001C41.2799 33.8209 41.3695 33.6017 41.39 33.3709C41.4106 33.1401 41.3612 32.9085 41.2482 32.7062C41.1353 32.5039 40.9641 32.3403 40.7569 32.2367C40.5497 32.133 40.3161 32.0941 40.0865 32.1251ZM44.8461 35.5866V37.8943H61V35.5866H44.8461ZM40.0865 42.5097C39.7873 42.5494 39.5156 42.7047 39.3296 42.9424L35.3984 47.882L32.8023 46.1513C32.544 45.9791 32.2279 45.9166 31.9236 45.9775C31.6192 46.0385 31.3515 46.2178 31.1794 46.4761C31.0073 46.7343 30.9448 47.0504 31.0057 47.3548C31.0666 47.6591 31.2459 47.9268 31.5042 48.0989L34.9657 50.4066C35.2084 50.5682 35.5031 50.6319 35.7908 50.585C36.0785 50.5382 36.3377 50.3841 36.5165 50.1539L41.1319 44.3847C41.2787 44.2056 41.3681 43.9865 41.3887 43.7559C41.4093 43.5252 41.36 43.2937 41.2472 43.0915C41.1345 42.8893 40.9635 42.7256 40.7565 42.6219C40.5495 42.5181 40.316 42.479 40.0865 42.5097ZM44.8461 45.9713V48.2789H61V45.9713H44.8461ZM40.0865 52.8943C39.7873 52.934 39.5156 53.0893 39.3296 53.327L35.3984 58.2666L32.8023 56.5359C32.6744 56.4506 32.531 56.3914 32.3802 56.3616C32.2294 56.3318 32.0743 56.332 31.9236 56.3622C31.6192 56.4231 31.3515 56.6024 31.1794 56.8607C31.0073 57.119 30.9448 57.435 31.0057 57.7394C31.0666 58.0437 31.2459 58.3114 31.5042 58.4836L34.9657 60.7913C35.2084 60.9528 35.5031 61.0165 35.7908 60.9696C36.0785 60.9228 36.3377 60.7688 36.5165 60.5386L41.1319 54.7693C41.2787 54.5902 41.3681 54.3711 41.3887 54.1405C41.4093 53.9098 41.36 53.6784 41.2472 53.4761C41.1345 53.2739 40.9635 53.1102 40.7565 53.0065C40.5495 52.9027 40.316 52.8636 40.0865 52.8943ZM44.8461 56.3559V58.6636H61V56.3559H44.8461Z" fill="white"/>
</g>
<defs>
<clipPath id="clip0_437_348">
<rect width="30" height="30" fill="white" transform="translate(31 32.125)"/>
</clipPath>
</defs>
</svg>
