<svg width="56" height="56" viewBox="0 0 56 56" fill="none" xmlns="http://www.w3.org/2000/svg">
<path d="M17.2667 35.6719L24.3833 28.6019L29.05 33.2686L38.5 23.8303V29.1666H40.8333V19.8333H31.5V22.1666H36.8363L29.05 29.9529L24.3833 25.2863L15.6613 34.0666L17.2667 35.6719ZM13.1017 46.6666C12.0283 46.6666 11.1323 46.3073 10.4137 45.5886C9.69344 44.8684 9.33333 43.9716 9.33333 42.8983V13.1016C9.33333 12.0283 9.69344 11.1323 10.4137 10.4136C11.1323 9.69336 12.0283 9.33325 13.1017 9.33325H42.8983C43.9717 9.33325 44.8677 9.69336 45.5863 10.4136C46.3066 11.1323 46.6667 12.0283 46.6667 13.1016V42.8983C46.6667 43.9716 46.3073 44.8676 45.5887 45.5863C44.8684 46.3065 43.9717 46.6666 42.8983 46.6666H13.1017ZM13.1017 44.3333H42.8983C43.2561 44.3333 43.5851 44.1839 43.8853 43.8853C44.184 43.585 44.3333 43.256 44.3333 42.8983V13.1016C44.3333 12.7438 44.184 12.4148 43.8853 12.1146C43.5851 11.8159 43.2561 11.6666 42.8983 11.6666H13.1017C12.7439 11.6666 12.4149 11.8159 12.1147 12.1146C11.816 12.4148 11.6667 12.7438 11.6667 13.1016V42.8983C11.6667 43.256 11.816 43.585 12.1147 43.8853C12.4149 44.1839 12.7439 44.3333 13.1017 44.3333Z" fill="white"/>
</svg>
