<svg width="46" height="46" viewBox="0 0 46 46" fill="none" xmlns="http://www.w3.org/2000/svg">
<path d="M12.6788 42.1666C11.8226 42.1666 11.0924 41.865 10.488 41.2619C9.8849 40.6588 9.58334 39.9286 9.58334 39.0712V6.92867C9.58334 6.07256 9.8849 5.34231 10.488 4.73792C11.0911 4.13481 11.8214 3.83325 12.6788 3.83325H29.4879C30.344 3.83325 31.0743 4.13481 31.6787 4.73792C32.2818 5.34103 32.5833 6.07128 32.5833 6.92867V13.269H30.6667V10.5416H11.5V35.4583H30.6667V32.7308H32.5833V39.0712C32.5833 39.9273 32.2818 40.6575 31.6787 41.2619C31.0756 41.865 30.3453 42.1666 29.4879 42.1666H12.6788ZM11.5 37.3749V39.0712C11.5 39.3651 11.6227 39.6353 11.868 39.8819C12.1146 40.1273 12.3849 40.2499 12.6788 40.2499H29.4879C29.7818 40.2499 30.0521 40.1273 30.2987 39.8819C30.544 39.6353 30.6667 39.3651 30.6667 39.0712V37.3749H11.5ZM28.6542 29.3403L21.8347 22.5208L23.1917 21.1638L28.6542 26.6263L39.5562 15.7243L40.9132 17.0813L28.6542 29.3403ZM11.5 8.62492H30.6667V6.92867C30.6667 6.63478 30.544 6.36453 30.2987 6.11792C30.0521 5.87259 29.7818 5.74992 29.4879 5.74992H12.6788C12.3849 5.74992 12.1146 5.87259 11.868 6.11792C11.6227 6.36453 11.5 6.63478 11.5 6.92867V8.62492Z" fill="white"/>
</svg>
