<svg width="44" height="44" viewBox="0 0 44 44" fill="none" xmlns="http://www.w3.org/2000/svg">
<path d="M20.1667 36.6666H10.2942C9.45084 36.6666 8.74684 36.3843 8.18218 35.8196C7.61629 35.2537 7.33334 34.5491 7.33334 33.7058V10.2941C7.33334 9.45075 7.61629 8.74675 8.18218 8.18208C8.74684 7.6162 9.45084 7.33325 10.2942 7.33325H20.1667V36.6666ZM18.3333 34.8333V9.16659H10.2942C9.9654 9.16659 9.69529 9.27231 9.48384 9.48375C9.2724 9.6952 9.16668 9.96531 9.16668 10.2941V33.7058C9.16668 34.0345 9.2724 34.3046 9.48384 34.5161C9.69529 34.7275 9.9654 34.8333 10.2942 34.8333H18.3333ZM23.8333 20.1666V7.33325H33.7058C34.5492 7.33325 35.2532 7.6162 35.8178 8.18208C36.3837 8.74675 36.6667 9.45075 36.6667 10.2941V20.1666H23.8333ZM25.6667 18.3333H34.8333V10.2941C34.8333 9.96531 34.7276 9.6952 34.5162 9.48375C34.3047 9.27231 34.0346 9.16659 33.7058 9.16659H25.6667V18.3333ZM23.8333 36.6666V23.8333H36.6667V33.7058C36.6667 34.5491 36.3843 35.2531 35.8197 35.8178C35.2538 36.3836 34.5492 36.6666 33.7058 36.6666H23.8333ZM25.6667 34.8333H33.7058C34.0346 34.8333 34.3047 34.7275 34.5162 34.5161C34.7276 34.3046 34.8333 34.0345 34.8333 33.7058V25.6666H25.6667V34.8333Z" fill="white"/>
</svg>
