<svg width="285" height="64" viewBox="0 0 285 64" fill="none" xmlns="http://www.w3.org/2000/svg">
<g clip-path="url(#clip0_2_40)">
<ellipse cx="28" cy="32.5" rx="25" ry="24.5" fill="#8B81FF"/>
<path d="M41.8525 18.3912C41.8411 18.336 41.8142 18.2851 41.7749 18.2446C41.7356 18.2041 41.6856 18.1756 41.6307 18.1625C37.97 17.2675 29.5119 20.4569 24.9294 25.0375C24.1121 25.8482 23.367 26.7286 22.7025 27.6687C21.2894 27.5437 19.8763 27.6481 18.6719 28.1731C15.2738 29.6687 14.2844 33.5712 14.0088 35.25C13.9931 35.3419 13.999 35.4361 14.026 35.5254C14.053 35.6146 14.1003 35.6963 14.1642 35.7642C14.2281 35.832 14.3069 35.8841 14.3943 35.9164C14.4818 35.9486 14.5755 35.9601 14.6682 35.95L20.125 35.3481C20.1289 35.7595 20.1538 36.1705 20.1994 36.5794C20.2269 36.8633 20.3529 37.1287 20.5557 37.3294L22.6688 39.4375C22.8697 39.64 23.1349 39.766 23.4188 39.7937C23.8254 39.8392 24.234 39.8641 24.6432 39.8681L24.0444 45.3181C24.0344 45.4107 24.046 45.5044 24.0783 45.5918C24.1106 45.6792 24.1627 45.7579 24.2305 45.8218C24.2983 45.8857 24.38 45.933 24.4692 45.96C24.5583 45.987 24.6525 45.993 24.7444 45.9775C26.42 45.7087 30.3294 44.7194 31.8163 41.3212C32.3413 40.1169 32.4488 38.7106 32.3275 37.3044C33.2699 36.6399 34.1526 35.8946 34.9657 35.0769C39.5625 30.5031 42.7338 22.2337 41.8525 18.3912ZM30.3794 29.6206C29.9597 29.2011 29.6737 28.6666 29.5578 28.0846C29.4419 27.5026 29.5012 26.8993 29.7282 26.351C29.9552 25.8027 30.3397 25.3341 30.8331 25.0043C31.3265 24.6746 31.9066 24.4986 32.5 24.4986C33.0935 24.4986 33.6736 24.6746 34.1669 25.0043C34.6603 25.3341 35.0449 25.8027 35.2719 26.351C35.4989 26.8993 35.5582 27.5026 35.4422 28.0846C35.3263 28.6666 35.0404 29.2011 34.6207 29.6206C34.3423 29.8994 34.0118 30.1205 33.6479 30.2714C33.284 30.4222 32.8939 30.4999 32.5 30.4999C32.1061 30.4999 31.7161 30.4222 31.3522 30.2714C30.9883 30.1205 30.6577 29.8994 30.3794 29.6206Z" fill="white"/>
<path d="M22.525 40.9644C22.1825 41.3075 21.6331 41.4413 20.9719 41.5556C19.4863 41.8088 18.1744 40.525 18.4412 39.0231C18.5431 38.4538 18.8444 37.6556 19.0319 37.4681C19.0729 37.4279 19.1001 37.3759 19.1098 37.3193C19.1195 37.2627 19.1112 37.2045 19.0859 37.153C19.0607 37.1014 19.0198 37.0591 18.9691 37.0321C18.9185 37.0051 18.8606 36.9948 18.8038 37.0025C17.973 37.1042 17.2001 37.4808 16.6081 38.0725C15.1388 39.5431 15 45 15 45C15 45 20.46 44.8613 21.9294 43.3906C22.5229 42.7992 22.9 42.0251 23 41.1931C23.0231 40.9319 22.705 40.7763 22.525 40.9644Z" fill="white"/>
<path d="M73.9791 26.168H78.3951V30.008H74.1071V43H69.1151V30.008H66.4591V26.168H69.1151V25.4C69.1151 23.4373 69.6911 21.88 70.8431 20.728C72.0165 19.576 73.6591 19 75.7711 19C76.5178 19 77.2218 19.0853 77.8831 19.256C78.5658 19.4053 79.1311 19.6293 79.5791 19.928L78.2671 23.544C77.6911 23.1387 77.0191 22.936 76.2511 22.936C74.7365 22.936 73.9791 23.768 73.9791 25.432V26.168ZM98.2261 25.784V43H93.4901V40.952C92.8288 41.6987 92.0395 42.2747 91.1221 42.68C90.2048 43.064 89.2128 43.256 88.1461 43.256C85.8848 43.256 84.0928 42.6053 82.7701 41.304C81.4475 40.0027 80.7861 38.072 80.7861 35.512V25.784H85.7781V34.776C85.7781 37.5493 86.9408 38.936 89.2661 38.936C90.4608 38.936 91.4208 38.552 92.1461 37.784C92.8715 36.9947 93.2341 35.832 93.2341 34.296V25.784H98.2261ZM113.955 42.168C113.464 42.5307 112.856 42.808 112.131 43C111.427 43.1707 110.68 43.256 109.891 43.256C107.843 43.256 106.254 42.7333 105.123 41.688C104.014 40.6427 103.459 39.1067 103.459 37.08V30.008H100.803V26.168H103.459V21.976H108.451V26.168H112.739V30.008H108.451V37.016C108.451 37.7413 108.632 38.3067 108.995 38.712C109.379 39.096 109.912 39.288 110.595 39.288C111.384 39.288 112.056 39.0747 112.611 38.648L113.955 42.168ZM134.101 25.784V43H129.365V40.952C128.704 41.6987 127.914 42.2747 126.997 42.68C126.08 43.064 125.088 43.256 124.021 43.256C121.76 43.256 119.968 42.6053 118.645 41.304C117.322 40.0027 116.661 38.072 116.661 35.512V25.784H121.653V34.776C121.653 37.5493 122.816 38.936 125.141 38.936C126.336 38.936 127.296 38.552 128.021 37.784C128.746 36.9947 129.109 35.832 129.109 34.296V25.784H134.101ZM143.494 28.056C144.091 27.224 144.891 26.5947 145.894 26.168C146.918 25.7413 148.091 25.528 149.414 25.528V30.136C148.859 30.0933 148.486 30.072 148.294 30.072C146.865 30.072 145.745 30.4773 144.934 31.288C144.123 32.0773 143.718 33.272 143.718 34.872V43H138.726V25.784H143.494V28.056ZM169.09 34.456C169.09 34.52 169.058 34.968 168.994 35.8H155.97C156.205 36.8667 156.759 37.7093 157.634 38.328C158.509 38.9467 159.597 39.256 160.898 39.256C161.794 39.256 162.583 39.128 163.266 38.872C163.97 38.5947 164.621 38.168 165.218 37.592L167.874 40.472C166.253 42.328 163.885 43.256 160.77 43.256C158.829 43.256 157.111 42.8827 155.618 42.136C154.125 41.368 152.973 40.312 152.162 38.968C151.351 37.624 150.946 36.0987 150.946 34.392C150.946 32.7067 151.341 31.192 152.13 29.848C152.941 28.4827 154.039 27.4267 155.426 26.68C156.834 25.912 158.402 25.528 160.13 25.528C161.815 25.528 163.341 25.8907 164.706 26.616C166.071 27.3413 167.138 28.3867 167.906 29.752C168.695 31.096 169.09 32.664 169.09 34.456ZM160.162 29.304C159.031 29.304 158.082 29.624 157.314 30.264C156.546 30.904 156.077 31.7787 155.906 32.888H164.386C164.215 31.8 163.746 30.936 162.978 30.296C162.21 29.6347 161.271 29.304 160.162 29.304ZM194.461 25.528C196.616 25.528 198.323 26.168 199.581 27.448C200.861 28.7067 201.501 30.6053 201.501 33.144V43H196.509V33.912C196.509 32.5467 196.221 31.5333 195.645 30.872C195.091 30.1893 194.291 29.848 193.245 29.848C192.072 29.848 191.144 30.232 190.461 31C189.779 31.7467 189.437 32.8667 189.437 34.36V43H184.445V33.912C184.445 31.2027 183.357 29.848 181.181 29.848C180.029 29.848 179.112 30.232 178.429 31C177.747 31.7467 177.405 32.8667 177.405 34.36V43H172.413V25.784H177.181V27.768C177.821 27.0427 178.6 26.488 179.517 26.104C180.456 25.72 181.48 25.528 182.589 25.528C183.805 25.528 184.904 25.7733 185.885 26.264C186.867 26.7333 187.656 27.4267 188.253 28.344C188.957 27.448 189.843 26.7547 190.909 26.264C191.997 25.7733 193.181 25.528 194.461 25.528ZM223.027 34.456C223.027 34.52 222.995 34.968 222.931 35.8H209.907C210.142 36.8667 210.697 37.7093 211.571 38.328C212.446 38.9467 213.534 39.256 214.835 39.256C215.731 39.256 216.521 39.128 217.203 38.872C217.907 38.5947 218.558 38.168 219.155 37.592L221.811 40.472C220.19 42.328 217.822 43.256 214.707 43.256C212.766 43.256 211.049 42.8827 209.555 42.136C208.062 41.368 206.91 40.312 206.099 38.968C205.289 37.624 204.883 36.0987 204.883 34.392C204.883 32.7067 205.278 31.192 206.067 29.848C206.878 28.4827 207.977 27.4267 209.363 26.68C210.771 25.912 212.339 25.528 214.067 25.528C215.753 25.528 217.278 25.8907 218.643 26.616C220.009 27.3413 221.075 28.3867 221.843 29.752C222.633 31.096 223.027 32.664 223.027 34.456ZM214.099 29.304C212.969 29.304 212.019 29.624 211.251 30.264C210.483 30.904 210.014 31.7787 209.843 32.888H218.323C218.153 31.8 217.683 30.936 216.915 30.296C216.147 29.6347 215.209 29.304 214.099 29.304ZM231.119 28.056C231.716 27.224 232.516 26.5947 233.519 26.168C234.543 25.7413 235.716 25.528 237.039 25.528V30.136C236.484 30.0933 236.111 30.072 235.919 30.072C234.49 30.072 233.37 30.4773 232.559 31.288C231.748 32.0773 231.343 33.272 231.343 34.872V43H226.351V25.784H231.119V28.056ZM248.171 43.256C246.336 43.256 244.683 42.8827 243.211 42.136C241.76 41.368 240.619 40.312 239.787 38.968C238.976 37.624 238.571 36.0987 238.571 34.392C238.571 32.6853 238.976 31.16 239.787 29.816C240.619 28.472 241.76 27.4267 243.211 26.68C244.683 25.912 246.336 25.528 248.171 25.528C249.984 25.528 251.563 25.912 252.907 26.68C254.272 27.4267 255.264 28.504 255.883 29.912L252.011 31.992C251.115 30.4133 249.824 29.624 248.139 29.624C246.838 29.624 245.76 30.0507 244.907 30.904C244.054 31.7573 243.627 32.92 243.627 34.392C243.627 35.864 244.054 37.0267 244.907 37.88C245.76 38.7333 246.838 39.16 248.139 39.16C249.846 39.16 251.136 38.3707 252.011 36.792L255.883 38.904C255.264 40.2693 254.272 41.336 252.907 42.104C251.563 42.872 249.984 43.256 248.171 43.256ZM275.402 34.456C275.402 34.52 275.37 34.968 275.306 35.8H262.282C262.517 36.8667 263.072 37.7093 263.946 38.328C264.821 38.9467 265.909 39.256 267.21 39.256C268.106 39.256 268.896 39.128 269.578 38.872C270.282 38.5947 270.933 38.168 271.53 37.592L274.186 40.472C272.565 42.328 270.197 43.256 267.082 43.256C265.141 43.256 263.424 42.8827 261.93 42.136C260.437 41.368 259.285 40.312 258.474 38.968C257.664 37.624 257.258 36.0987 257.258 34.392C257.258 32.7067 257.653 31.192 258.442 29.848C259.253 28.4827 260.352 27.4267 261.738 26.68C263.146 25.912 264.714 25.528 266.442 25.528C268.128 25.528 269.653 25.8907 271.018 26.616C272.384 27.3413 273.45 28.3867 274.218 29.752C275.008 31.096 275.402 32.664 275.402 34.456ZM266.474 29.304C265.344 29.304 264.394 29.624 263.626 30.264C262.858 30.904 262.389 31.7787 262.218 32.888H270.698C270.528 31.8 270.058 30.936 269.29 30.296C268.522 29.6347 267.584 29.304 266.474 29.304ZM280.614 43.256C279.739 43.256 279.003 42.9573 278.406 42.36C277.809 41.7627 277.51 41.016 277.51 40.12C277.51 39.2027 277.809 38.4667 278.406 37.912C279.003 37.336 279.739 37.048 280.614 37.048C281.489 37.048 282.225 37.336 282.822 37.912C283.419 38.4667 283.718 39.2027 283.718 40.12C283.718 41.016 283.419 41.7627 282.822 42.36C282.225 42.9573 281.489 43.256 280.614 43.256Z" fill="black"/>
</g>
<defs>
<clipPath id="clip0_2_40">
<rect width="285" height="64" fill="white"/>
</clipPath>
</defs>
</svg>
